<svg width="114" height="104" viewBox="0 0 114 104" fill="none" xmlns="http://www.w3.org/2000/svg">
<path opacity="0.42" d="M98.8006 32.9504L97.6604 35.5643C96.8248 37.4786 94.1751 37.4786 93.3419 35.5643L92.2017 32.9504C90.1683 28.2883 86.5076 24.5753 81.9376 22.5456L78.4247 20.9846C76.5251 20.1395 76.5251 17.3778 78.4247 16.5326L81.7414 15.0571C86.4269 12.9743 90.1544 9.12502 92.1533 4.3036L93.3235 1.47725C94.1405 -0.492417 96.8618 -0.492417 97.6765 1.47725L98.8467 4.3036C100.846 9.12502 104.573 12.9743 109.259 15.0571L112.575 16.5326C114.475 17.3778 114.475 20.1395 112.575 20.9846L109.062 22.5456C104.495 24.5753 100.834 28.2883 98.8006 32.9504Z" fill="url(#paint0_radial_96_136)"/>
<path d="M57.4269 89.2852L52.5951 100.351C50.7389 104.605 44.8511 104.605 42.9949 100.351L38.1631 89.2852C33.8621 79.4374 26.1236 71.5972 16.4711 67.3127L3.17212 61.4084C-1.05737 59.5329 -1.05737 53.3812 3.17212 51.5029L16.0559 45.7829C25.9586 41.3884 33.8346 33.2594 38.0614 23.0734L42.9564 11.2814C44.7714 6.90619 50.8186 6.90619 52.6364 11.2814L57.5314 23.0734C61.7581 33.2567 69.6369 41.3857 79.5369 45.7829L92.4206 51.5029C96.6501 53.3784 96.6501 59.5302 92.4206 61.4084L79.1216 67.3127C69.4664 71.5999 61.7279 79.4374 57.4269 89.2852Z" fill="url(#paint1_linear_96_136)"/>
<defs>
<radialGradient id="paint0_radial_96_136" cx="0" cy="0" r="1" gradientUnits="userSpaceOnUse" gradientTransform="translate(75.6124 -20.869) rotate(78.8627) scale(63.0042 63.0093)">
<stop stop-color="#FB5656"/>
<stop offset="1" stop-color="#F49C46"/>
</radialGradient>
<linearGradient id="paint1_linear_96_136" x1="60.2012" y1="-13.5364" x2="89.201" y2="133.705" gradientUnits="userSpaceOnUse">
<stop offset="0.100962" stop-color="#FF7F7F"/>
<stop offset="0.408654" stop-color="#FACEA3"/>
<stop offset="1" stop-color="#F49C46"/>
</linearGradient>
</defs>
</svg>
